<svg width="16" height="16" viewBox="0 0 16 16" fill="none" xmlns="http://www.w3.org/2000/svg">
<path fill-rule="evenodd" clip-rule="evenodd" d="M8 0C3.58172 0 0 3.58172 0 8C0 12.4183 3.58172 16 8 16C12.4183 16 16 12.4183 16 8C16 3.58172 12.4183 0 8 0ZM6.24109 3.75911C6.69621 3.7384 6.84163 3.73333 8.0004 3.73333H7.99907C9.15819 3.73333 9.30308 3.7384 9.7582 3.75911C10.2124 3.77991 10.5226 3.85182 10.7947 3.95734C11.0755 4.06623 11.3129 4.21201 11.5502 4.44934C11.7876 4.6865 11.9333 4.92455 12.0427 5.20517C12.1476 5.47646 12.2196 5.78651 12.2409 6.24074C12.2613 6.69585 12.2667 6.84128 12.2667 8.00004C12.2667 9.15881 12.2613 9.30388 12.2409 9.759C12.2196 10.213 12.1476 10.5232 12.0427 10.7946C11.9333 11.0751 11.7876 11.3131 11.5502 11.5503C11.3131 11.7876 11.0755 11.9338 10.7949 12.0428C10.5234 12.1483 10.213 12.2202 9.75882 12.241C9.3037 12.2617 9.15872 12.2668 7.99987 12.2668C6.84119 12.2668 6.69585 12.2617 6.24074 12.241C5.7866 12.2202 5.47646 12.1483 5.20499 12.0428C4.92455 11.9338 4.6865 11.7876 4.44943 11.5503C4.21218 11.3131 4.0664 11.0751 3.95734 10.7945C3.85191 10.5232 3.78 10.2131 3.75911 9.75891C3.73849 9.30379 3.73333 9.15881 3.73333 8.00004C3.73333 6.84128 3.73867 6.69576 3.75902 6.24065C3.77947 5.7866 3.85147 5.47646 3.95725 5.20508C4.06658 4.92455 4.21236 4.6865 4.4497 4.44934C4.68685 4.21209 4.9249 4.06631 5.20553 3.95734C5.47682 3.85182 5.78687 3.77991 6.24109 3.75911Z" fill="#513800"/>
<path fill-rule="evenodd" clip-rule="evenodd" d="M7.61762 4.50229C7.69194 4.50217 7.77189 4.50221 7.85817 4.50225L8.00038 4.50229C9.13959 4.50229 9.27461 4.50638 9.72448 4.52682C10.1405 4.54584 10.3663 4.61536 10.5167 4.67376C10.7158 4.75109 10.8577 4.84354 11.007 4.99287C11.1563 5.14221 11.2488 5.28443 11.3263 5.48354C11.3847 5.63377 11.4543 5.85955 11.4732 6.27555C11.4937 6.72533 11.4981 6.86045 11.4981 7.99912C11.4981 9.1378 11.4937 9.27291 11.4732 9.7227C11.4542 10.1387 11.3847 10.3645 11.3263 10.5147C11.2489 10.7138 11.1563 10.8556 11.007 11.0048C10.8577 11.1542 10.7159 11.2466 10.5167 11.324C10.3664 11.3826 10.1405 11.452 9.72448 11.471C9.2747 11.4914 9.13959 11.4959 8.00038 11.4959C6.86108 11.4959 6.72605 11.4914 6.27627 11.471C5.86027 11.4518 5.63449 11.3823 5.484 11.3239C5.28488 11.2465 5.14266 11.1541 4.99332 11.0048C4.84399 10.8554 4.75154 10.7136 4.67403 10.5143C4.61563 10.3641 4.54603 10.1383 4.5271 9.72234C4.50665 9.27256 4.50256 9.13745 4.50256 7.99806C4.50256 6.85867 4.50665 6.72427 4.5271 6.27448C4.54612 5.85848 4.61563 5.6327 4.67403 5.4823C4.75137 5.28318 4.84399 5.14096 4.99332 4.99163C5.14266 4.84229 5.28488 4.74985 5.484 4.67233C5.6344 4.61367 5.86027 4.54433 6.27627 4.52522C6.66987 4.50744 6.82241 4.50211 7.61762 4.50122V4.50229ZM10.2779 5.21074C9.99524 5.21074 9.76591 5.43981 9.76591 5.72257C9.76591 6.00524 9.99524 6.23457 10.2779 6.23457C10.5606 6.23457 10.7899 6.00524 10.7899 5.72257C10.7899 5.4399 10.5606 5.21056 10.2779 5.21056V5.21074ZM5.80924 8.0001C5.80924 6.79007 6.79027 5.80902 8.00029 5.80897C9.21035 5.80897 10.1912 6.79004 10.1912 8.0001C10.1912 9.21016 9.21043 10.1908 8.00038 10.1908C6.79032 10.1908 5.80924 9.21016 5.80924 8.0001Z" fill="#513800"/>
<path d="M8.00042 6.57788C8.78585 6.57788 9.42266 7.2146 9.42266 8.00012C9.42266 8.78555 8.78585 9.42235 8.00042 9.42235C7.2149 9.42235 6.57819 8.78555 6.57819 8.00012C6.57819 7.2146 7.2149 6.57788 8.00042 6.57788Z" fill="#513800"/>
</svg>
