<svg width="16" height="16" viewBox="0 0 16 16" fill="none" xmlns="http://www.w3.org/2000/svg">
<path d="M8.18125 0.25C12.4625 0.25 15.9313 3.71875 15.9313 8C15.9313 12.2812 12.4625 15.75 8.18125 15.75C3.9 15.75 0.43125 12.2812 0.43125 8C0.43125 3.71875 3.9 0.25 8.18125 0.25ZM4.55625 9.375H8.18125V11.5938C8.18125 11.9375 8.5875 12.0938 8.80625 11.875L12.3688 8.28125C12.525 8.125 12.525 7.90625 12.3688 7.75L8.80625 4.15625C8.55625 3.90625 8.18125 4.09375 8.18125 4.4375V6.625H4.55625C4.3375 6.625 4.18125 6.8125 4.18125 7V9C4.18125 9.21875 4.3375 9.375 4.55625 9.375Z" fill="white"/>
</svg>
