<svg width="17" height="17" viewBox="0 0 17 17" fill="none" xmlns="http://www.w3.org/2000/svg">
<path d="M15.9625 13.8438C16.2438 14.1562 16.2438 14.625 15.9313 14.9062L15.0563 15.7812C14.775 16.0938 14.3063 16.0938 13.9938 15.7812L10.9 12.6875C10.7438 12.5312 10.6813 12.3438 10.6813 12.1562V11.625C9.55625 12.5 8.18125 13 6.68125 13C3.0875 13 0.18125 10.0938 0.18125 6.5C0.18125 2.9375 3.0875 0 6.68125 0C10.2438 0 13.1813 2.9375 13.1813 6.5C13.1813 8.03125 12.65 9.40625 11.8063 10.5H12.3063C12.4938 10.5 12.6813 10.5938 12.8375 10.7188L15.9625 13.8438ZM6.68125 10.5C8.86875 10.5 10.6813 8.71875 10.6813 6.5C10.6813 4.3125 8.86875 2.5 6.68125 2.5C4.4625 2.5 2.68125 4.3125 2.68125 6.5C2.68125 8.71875 4.4625 10.5 6.68125 10.5Z" fill="black"/>
</svg>
