<svg width="17" height="17" viewBox="0 0 17 17" fill="none" xmlns="http://www.w3.org/2000/svg">
<g clip-path="url(#clip0_9_177)">
<path d="M0.943991 6.45981C1.06132 6.06514 1.59999 5.86781 2.55999 5.86781H6.15999L7.26399 2.55581V2.53981C7.46666 1.94248 7.70132 1.54248 7.96799 1.33981C8.23466 1.13714 8.49599 1.13714 8.75199 1.33981C9.00799 1.54248 9.23732 1.94248 9.43999 2.53981L9.45599 2.55581L10.544 5.86781H14.16C14.7787 5.86781 15.232 5.95848 15.52 6.13981C15.808 6.32114 15.8827 6.57181 15.744 6.89181C15.6053 7.21181 15.2907 7.54781 14.8 7.89981L14.72 7.96381L11.904 9.97981L12.976 13.2918L13.008 13.3238C13.296 14.2305 13.2747 14.8118 12.944 15.0678C12.6133 15.3238 12.0533 15.1691 11.264 14.6038L11.184 14.5558L8.35199 12.5238L5.48799 14.5718L5.45599 14.6038C4.67732 15.1585 4.11732 15.3131 3.77599 15.0678C3.43466 14.8225 3.41332 14.2411 3.71199 13.3238L3.72799 13.3078V13.2758L4.81599 9.97981L1.98399 7.96381L1.91999 7.89981C1.14132 7.34514 0.815991 6.86514 0.943991 6.45981Z" fill="#FF8D00"/>
</g>
<defs>
<clipPath id="clip0_9_177">
<rect width="16" height="16" fill="white" transform="matrix(1 0 0 -1 0.359985 16.2197)"/>
</clipPath>
</defs>
</svg>
