<svg width="16" height="16" viewBox="0 0 16 16" fill="none" xmlns="http://www.w3.org/2000/svg">
<rect width="16" height="16" rx="8" fill="#513800"/>
<path d="M3.14728 12.6534L3.83323 10.1624C3.40915 9.4313 3.18667 8.60331 3.18899 7.75685C3.18899 5.10449 5.35809 2.948 8.02081 2.948C9.31393 2.948 10.5283 3.44849 11.439 4.35721C12.3521 5.26594 12.8549 6.47449 12.8526 7.75916C12.8526 10.4115 10.6835 12.568 8.01849 12.568H8.01617C7.20739 12.568 6.41252 12.3651 5.70571 11.9822L3.14728 12.6534ZM5.82853 11.1127L5.97453 11.2003C6.59096 11.5647 7.29777 11.7562 8.01849 11.7585H8.02081C10.2339 11.7585 12.0369 9.96639 12.0369 7.76147C12.0369 6.6936 11.6198 5.69031 10.862 4.93381C10.1042 4.17731 9.09377 3.76216 8.02081 3.76216C5.80767 3.75985 4.00472 5.55193 4.00472 7.75685C4.00472 8.51105 4.21561 9.24679 4.61884 9.88336L4.71385 10.0356L4.3083 11.5094L5.82853 11.1127Z" fill="white"/>
<path d="M3.31647 12.4851L3.97925 10.0795C3.56907 9.37604 3.35355 8.57572 3.35355 7.75925C3.35586 5.19914 5.44849 3.11646 8.02083 3.11646C9.26991 3.11646 10.4402 3.6008 11.3208 4.47723C12.2014 5.35367 12.6858 6.52071 12.6858 7.76156C12.6858 10.3217 10.5908 12.4044 8.02083 12.4044H8.01851C7.23754 12.4044 6.47047 12.2083 5.78915 11.8393L3.31647 12.4851Z" fill="#513800"/>
<path d="M3.14728 12.6534L3.83323 10.1624C3.40915 9.4313 3.18667 8.60331 3.18899 7.75685C3.18899 5.10449 5.35809 2.948 8.02081 2.948C9.31393 2.948 10.5283 3.44849 11.439 4.35721C12.3521 5.26594 12.8549 6.47449 12.8526 7.75916C12.8526 10.4115 10.6835 12.568 8.01849 12.568H8.01617C7.20739 12.568 6.41252 12.3651 5.70571 11.9822L3.14728 12.6534ZM5.82853 11.1127L5.97453 11.2003C6.59096 11.5647 7.29777 11.7562 8.01849 11.7585H8.02081C10.2339 11.7585 12.0369 9.96639 12.0369 7.76147C12.0369 6.6936 11.6198 5.69031 10.862 4.93381C10.1042 4.17731 9.09377 3.76216 8.02081 3.76216C5.80767 3.75985 4.00472 5.55193 4.00472 7.75685C4.00472 8.51105 4.21561 9.24679 4.61884 9.88336L4.71385 10.0356L4.3083 11.5094L5.82853 11.1127Z" fill="#FCC201"/>
<path fill-rule="evenodd" clip-rule="evenodd" d="M6.81339 5.74577C6.72301 5.54511 6.628 5.5405 6.54225 5.5382C6.47273 5.53589 6.39162 5.53589 6.31051 5.53589C6.2294 5.53589 6.09963 5.56587 5.98839 5.68581C5.87715 5.80574 5.56662 6.09635 5.56662 6.68909C5.56662 7.27953 5.99998 7.85152 6.06023 7.93224C6.12048 8.01297 6.89682 9.26535 8.12273 9.74739C9.1424 10.1487 9.35096 10.068 9.57112 10.0472C9.79127 10.0265 10.2849 9.75661 10.3868 9.47523C10.4865 9.19385 10.4865 8.95398 10.4564 8.90324C10.4262 8.8525 10.3451 8.82252 10.2246 8.76255C10.1041 8.70258 9.51087 8.41198 9.39963 8.37046C9.28839 8.33125 9.20728 8.31049 9.12849 8.43043C9.04738 8.55036 8.81564 8.82021 8.74612 8.90093C8.6766 8.98166 8.60476 8.99088 8.48425 8.93092C8.36374 8.87095 7.97442 8.7441 7.51325 8.33356C7.15405 8.01528 6.91072 7.62088 6.8412 7.50095C6.77168 7.38101 6.83425 7.31643 6.8945 7.25647C6.9478 7.20342 7.01501 7.11578 7.07526 7.04658C7.13551 6.97739 7.15637 6.92665 7.19576 6.84593C7.23516 6.7652 7.21662 6.69601 7.1865 6.63604C7.15637 6.57838 6.91999 5.98333 6.81339 5.74577Z" fill="#FCC201"/>
</svg>
